<?xml version="1.0" encoding="UTF-8"?>
<svg width="1440px" height="1033px" viewBox="0 0 1440 1033" version="1.1" xmlns="http://www.w3.org/2000/svg" xmlns:xlink="http://www.w3.org/1999/xlink">
    <!-- Generator: Sketch 63.1 (92452) - https://sketch.com -->
    <title>Group 4</title>
    <desc>Created with Sketch.</desc>
    <g id="Page-1" stroke="none" stroke-width="1" fill="none" fill-rule="evenodd">
        <g id="Group-4">
            <polygon id="Fill-1" fill="#CCCCCC" points="0 1033 1440 1033 1440 0 0 0"></polygon>
            <path d="M914.1205,532.6602 C937.0405,532.6602 955.6205,514.0802 955.6205,491.1602 C955.6205,468.2302 937.0405,449.6602 914.1205,449.6602 C891.1995,449.6602 872.6205,468.2402 872.6205,491.1602 C872.6205,514.0802 891.1995,532.6602 914.1205,532.6602 L914.1205,532.6602 Z M960.0105,705.7902 L798.1095,595.9202 C775.3495,580.4802 750.0195,579.3002 741.8195,593.3092 C733.6205,607.3092 709.2095,604.8802 687.5795,587.9002 L648.9705,557.5902 C627.3405,540.6102 598.9305,546.5002 585.8495,570.6902 L553.0995,631.2002 C540.0105,655.3892 529.3005,688.3802 529.3005,704.5192 C529.3005,720.6602 551.8005,733.8702 579.3005,733.8702 L951.3805,733.8702 C978.8805,733.8702 982.7605,721.2402 960.0105,705.7902 L960.0105,705.7902 Z M1045.5295,711.6602 L1045.5195,711.6602 C1045.5195,739.1602 1023.0195,761.6602 995.5195,761.6602 L549.1405,761.6602 C521.6405,761.6602 499.1405,739.1602 499.1405,711.6602 L499.1405,466.9502 C499.1405,439.4502 521.6405,416.9502 549.1405,416.9502 L995.5295,416.9502 C1023.0295,416.9502 1045.5295,439.4502 1045.5295,466.9502 L1045.5295,711.6602 Z M881.1095,296.0002 C907.6705,288.8902 935.2295,304.8102 942.3405,331.3702 L955.9015,382.0402 L862.8195,382.0402 C862.5975,380.6932 862.3095,379.3462 861.9495,378.0002 C856.0195,355.8602 833.2695,342.7102 811.1305,348.6402 C794.8625,352.9902 783.4605,366.4332 780.9015,382.0402 L559.6525,382.0402 L881.1095,296.0002 Z M460.8405,432.0402 L460.8405,645.4352 L414.5905,472.6302 C407.4795,446.0702 423.3995,418.5102 449.9595,411.4002 L467.8465,406.6122 C463.4045,414.0752 460.8405,422.7712 460.8405,432.0402 L460.8405,432.0402 Z M1034.5105,382.0402 L996.2025,382.0402 L970.9495,287.6902 C963.8405,261.1302 936.2795,245.2102 909.7205,252.3202 L403.8005,387.7302 C377.2405,394.8402 361.3205,422.4002 368.4305,448.9602 L450.2005,754.4802 C454.4395,770.3152 465.9495,782.3652 480.1815,788.0102 C488.6645,794.6332 499.3085,798.5992 510.8405,798.5992 L1034.5005,798.5992 C1062.0005,798.5992 1084.5005,776.0992 1084.5005,748.5992 L1084.5105,748.5992 L1084.5105,432.0402 C1084.5105,404.5402 1062.0105,382.0402 1034.5105,382.0402 L1034.5105,382.0402 Z" id="Fill-2" fill="#F2F2F2"></path>
        </g>
    </g>
</svg>